# xmcd CD database file
#
# Track frame offsets:
#	150
#	13831
#	33740
#	50714
#	66450
#	80258
#	101021
#	118206
#	142836
#	162588
#	191166
#	207738
#	222099
#	234917
#
# Disc length: 3500 seconds
#
# Revision: 0
# Processed by: cddbd v1.5.2PL0 Copyright (c) Steve Scherf et al.
# Submitted via: CDex 1.70beta2
#
DISCID=d60daa0e
DTITLE=Charlie Landsborough - Here There And Everywhere
DYEAR=2014
DGENRE=Country
TTITLE0=Here There And Everywhere
TTITLE1=I Will - Ticket To Ride
TTITLE2=She's Leaving Home
TTITLE3=Crippled Inside
TTITLE4=In My Life
TTITLE5=Come Together
TTITLE6=And I Love Her
TTITLE7=Jealous Guy
TTITLE8=Imagine
TTITLE9=For No One - Here Comes The Sun - Things We Said Today
TTITLE10=The Long And Winding Road
TTITLE11=Penny Lane
TTITLE12=Yesterday
TTITLE13=I Feel Fine - Love Me Do - From Me To You - Let It Be
EXTD=YEAR: 2014
EXTT0=
EXTT1=
EXTT2=
EXTT3=
EXTT4=
EXTT5=
EXTT6=
EXTT7=
EXTT8=
EXTT9=
EXTT10=
EXTT11=
EXTT12=
EXTT13=
PLAYORDER=
